<svg xmlns="http://www.w3.org/2000/svg" width="960" height="1080" viewBox="0 0 960 1080">
  <defs>
    <style>
      .cls-1 {
        fill: #323232;
        fill-rule: evenodd;
      }
    </style>
  </defs>
  <path class="cls-1" d="M816.5,335a8.5,8.5,0,1,1-8.5,8.5A8.5,8.5,0,0,1,816.5,335Zm162,439a8.5,8.5,0,1,1-8.5,8.5A8.5,8.5,0,0,1,978.5,774Zm201-725a8.5,8.5,0,1,1-8.5,8.5A8.5,8.5,0,0,1,1179.5,49ZM479.5,0A8.5,8.5,0,1,1,471,8.5,8.5,8.5,0,0,1,479.5,0Zm-357,310a8.5,8.5,0,1,1-8.5,8.5A8.5,8.5,0,0,1,122.5,310ZM431.531,575a8.5,8.5,0,1,1-8.5,8.5A8.5,8.5,0,0,1,431.531,575ZM199.516,558a8.5,8.5,0,1,1-8.485,8.5A8.493,8.493,0,0,1,199.516,558ZM471.5,853a8.5,8.5,0,1,1-8.5,8.5A8.5,8.5,0,0,1,471.5,853Zm-411-17a8.5,8.5,0,1,1-8.5,8.5A8.5,8.5,0,0,1,60.5,836Zm-203-501a8.5,8.5,0,0,1,8.5,8.5,8.5,8.5,0,0,1-8.5,8.5,8.5,8.5,0,0,1-8.5-8.5A8.5,8.5,0,0,1-142.5,335Zm55,691a8.5,8.5,0,0,1,8.5,8.5,8.5,8.5,0,0,1-8.5,8.5,8.5,8.5,0,0,1-8.5-8.5A8.5,8.5,0,0,1-87.5,1026Zm887,37a8.5,8.5,0,1,1-8.5,8.5A8.5,8.5,0,0,1,799.5,1063Zm-892.292-22.61,1.585,1.22,154-200-1.585-1.22Zm153.9-198.837,1.789,0.894,138-276-1.789-.894ZM201.085,563L200.921,565l232,19L433.087,582Zm-2.036,3.3,1.908-.6-78-248-1.907.6ZM122.1,318l-0.195-1.991-265,26,0.2,1.99Zm-1.753-.751,1.311,1.51,358-311-1.311-1.51ZM480.71,8.29L479.3,9.711l336,333,1.408-1.421ZM817.39,342.214l1.237,1.572,362-285-1.24-1.572Zm-1.445,1.437-1.873.7,164,440,1.874-.7ZM436,581.868l-1.983.263,37,279,1.983-.262Zm544.862,198.66-1.7-1.056-181,291,1.7,1.06Z"/>
</svg>
