<svg xmlns="http://www.w3.org/2000/svg" width="30" height="30" viewBox="0 0 30 30">
  <defs>
    <style>
      .cls-1 {
        fill: #a7a7a7;
        fill-rule: evenodd;
      }
    </style>
  </defs>
  <path id="Dribbble_Logo" data-name="Dribbble Logo" class="cls-1" d="M183,610a15,15,0,1,0,15,15A15.017,15.017,0,0,0,183,610Zm9.869,7.08a12.607,12.607,0,0,1,2.8,7.725,31.459,31.459,0,0,0-5.862-.567,23.712,23.712,0,0,0-2.889.169q-0.125-.3-0.253-0.606c-0.255-.6-0.528-1.193-0.813-1.778A17.254,17.254,0,0,0,192.869,617.081ZM183,612.348a12.615,12.615,0,0,1,8.349,3.149A14.474,14.474,0,0,1,184.8,620a68.567,68.567,0,0,0-4.661-7.32A12.639,12.639,0,0,1,183,612.348Zm-5.443,1.231a81.9,81.9,0,0,1,4.636,7.229,47.947,47.947,0,0,1-11.453,1.527h-0.124A12.72,12.72,0,0,1,177.557,613.579Zm-7.229,11.441c0-.1,0-0.208.006-0.313,0.076,0,.186,0,0.332,0a47.381,47.381,0,0,0,12.656-1.8c0.341,0.669.667,1.348,0.968,2.026-0.141.04-.282,0.082-0.421,0.126a20.274,20.274,0,0,0-10.35,8.357A12.613,12.613,0,0,1,170.328,625.02ZM183,637.692a12.608,12.608,0,0,1-7.728-2.638c0.361-.711,2.988-5.448,9.929-7.867l0.015,0a53.064,53.064,0,0,1,2.68,9.525A12.6,12.6,0,0,1,183,637.692Zm7.177-2.234a55.423,55.423,0,0,0-2.429-8.9,16.709,16.709,0,0,1,2.552-.192,18.774,18.774,0,0,1,5.2.728A12.693,12.693,0,0,1,190.177,635.458Z" transform="translate(-168 -610)"/>
</svg>
