<svg xmlns="http://www.w3.org/2000/svg" width="60" height="60" viewBox="0 0 60 60">
  <defs>
    <style>
      .cls-1 {
        fill: #a7a7a7;
        fill-rule: evenodd;
      }
    </style>
  </defs>
  <path id="Dribbble_Logo" data-name="Dribbble Logo" class="cls-1" d="M205.5,219a30,30,0,1,0,30,30A30.034,30.034,0,0,0,205.5,219Zm19.738,14.161a25.216,25.216,0,0,1,5.6,15.45,62.81,62.81,0,0,0-11.726-1.135,47.4,47.4,0,0,0-5.777.337c-0.166-.4-0.333-0.805-0.506-1.211-0.51-1.2-1.056-2.387-1.626-3.555C220.073,239.389,224.354,234.312,225.239,233.163ZM205.5,223.7a25.228,25.228,0,0,1,16.7,6.3c-0.707.966-4.539,5.758-13.09,9a136.858,136.858,0,0,0-9.323-14.639A25.273,25.273,0,0,1,205.5,223.7Zm-10.887,2.462a163.227,163.227,0,0,1,9.272,14.456,95.86,95.86,0,0,1-22.906,3.055h-0.248A25.433,25.433,0,0,1,194.614,226.159ZM180.156,249.04c0-.208,0-0.417.011-0.626,0.152,0,.374.005,0.665,0.005a94.791,94.791,0,0,0,25.312-3.605c0.682,1.339,1.333,2.7,1.936,4.051-0.281.081-.564,0.164-0.842,0.254-12.666,4.1-19.631,14.94-20.7,16.714A25.239,25.239,0,0,1,180.156,249.04ZM205.5,274.384a25.22,25.22,0,0,1-15.458-5.276c0.723-1.421,5.977-10.9,19.86-15.734l0.029-.011a106.14,106.14,0,0,1,5.359,19.051A25.185,25.185,0,0,1,205.5,274.384Zm14.353-4.468A110.818,110.818,0,0,0,215,252.12a33.41,33.41,0,0,1,5.1-.383,37.671,37.671,0,0,1,10.4,1.454A25.384,25.384,0,0,1,219.854,269.916Z" transform="translate(-175.5 -219)"/>
</svg>
