<svg xmlns="http://www.w3.org/2000/svg" width="30" height="30" viewBox="0 0 30 30">
  <defs>
    <style>
      .cls-1 {
        fill: #a7a7a7;
        fill-rule: evenodd;
      }
    </style>
  </defs>
  <path id="Instagram" class="cls-1" d="M544,4890H522a3.949,3.949,0,0,0-4,4v22a3.949,3.949,0,0,0,4,4h22a3.95,3.95,0,0,0,4-4v-22.25A3.748,3.748,0,0,0,544,4890Zm-22.249,1.88h22.5a2.125,2.125,0,0,1,1.874,1.87v6.56h-7.5c-1.574-1.55-3.213-2.81-5.625-2.81s-4.052,1.26-5.625,2.81h-7.5v-6.56A2.125,2.125,0,0,1,521.751,4891.88Zm17.5,14.37A6.251,6.251,0,1,1,533,4900,6.19,6.19,0,0,1,539.251,4906.25Zm-2.5,0a3.751,3.751,0,0,1-7.5,0c0-.37.126-0.75,0.126-1.12a2.121,2.121,0,0,0,1.749,1.12,1.919,1.919,0,0,0,1.876-1.87,1.96,1.96,0,0,0-1.125-1.75c0.374,0,.75-0.13,1.125-0.13A3.686,3.686,0,0,1,536.751,4906.25Zm2.811-12.5h4.688v4.69h-4.688v-4.69Z" transform="translate(-518 -4890)"/>
</svg>
