<svg xmlns="http://www.w3.org/2000/svg" width="30" height="30" viewBox="0 0 30 30">
  <defs>
    <style>
      .cls-1 {
        fill: #15d698;
        fill-rule: evenodd;
      }
    </style>
  </defs>
  <path id="Instagram" class="cls-1" d="M374,610H352a3.948,3.948,0,0,0-4,4v22a3.95,3.95,0,0,0,4,4h22a3.951,3.951,0,0,0,4-4V613.75A3.747,3.747,0,0,0,374,610Zm-22.249,1.874h22.5a2.126,2.126,0,0,1,1.875,1.875v6.563h-7.5c-1.573-1.549-3.212-2.813-5.624-2.813s-4.052,1.264-5.626,2.813h-7.5V613.75A2.126,2.126,0,0,1,351.751,611.875Zm17.5,14.376A6.25,6.25,0,1,1,363,620,6.188,6.188,0,0,1,369.25,626.251Zm-2.5,0a3.751,3.751,0,0,1-7.5,0c0-.376.126-0.75,0.126-1.126a2.118,2.118,0,0,0,1.749,1.126A1.924,1.924,0,0,0,363,624.376a1.959,1.959,0,0,0-1.125-1.75c0.374,0,.75-0.125,1.125-0.125A3.682,3.682,0,0,1,366.751,626.251Zm2.812-12.5h4.687v4.687h-4.687V613.75Z" transform="translate(-348 -610)"/>
</svg>
