<svg xmlns="http://www.w3.org/2000/svg" width="60" height="60" viewBox="0 0 60 60">
  <defs>
    <style>
      .cls-1 {
        fill: #a7a7a7;
        fill-rule: evenodd;
      }
    </style>
  </defs>
  <path id="Instagram" class="cls-1" d="M587.5,219h-44a7.9,7.9,0,0,0-8,8v44a7.9,7.9,0,0,0,8,8h44a7.9,7.9,0,0,0,8-8V226.5C595.5,222,592,219,587.5,219ZM543,222.75h45a4.253,4.253,0,0,1,3.75,3.751v13.126h-15c-3.147-3.1-6.426-5.627-11.25-5.627s-8.1,2.528-11.25,5.627h-15V226.5A4.253,4.253,0,0,1,543,222.75ZM578,251.5A12.5,12.5,0,1,1,565.5,239,12.378,12.378,0,0,1,578,251.5Zm-5,0a7.5,7.5,0,0,1-15,0c0-.751.25-1.5,0.25-2.251a4.239,4.239,0,0,0,3.5,2.251,3.846,3.846,0,0,0,3.75-3.75,3.919,3.919,0,0,0-2.249-3.5c0.749,0,1.5-.251,2.249-0.251A7.365,7.365,0,0,1,573,251.5Zm5.624-25H588v9.375h-9.375V226.5Z" transform="translate(-535.5 -219)"/>
</svg>
