<svg xmlns="http://www.w3.org/2000/svg" width="30" height="30" viewBox="0 0 30 30">
  <defs>
    <style>
      .cls-1 {
        fill: #a7a7a7;
        fill-rule: evenodd;
      }
    </style>
  </defs>
  <path id="Linkedin_Logo" data-name="Linkedin Logo" class="cls-1" d="M288,628.394V640h-6.562v-11.25c0-2.721-.8-4.157-3.125-4.157-4.115,0-3.438,5.252-3.438,4.157V640h-6.506s0.031-18.725-.056-20.625h6.562l-0.075,3.251c-0.013.022-.03,0.045-0.042,0.066H274.8v-0.066a6.347,6.347,0,0,1,5.8-3.344C284.828,619.283,288,622.176,288,628.394ZM261.64,610a3.5,3.5,0,1,0-.085,7H261.6A3.5,3.5,0,1,0,261.64,610ZM258,640h7.5V619.376H258V640Z" transform="translate(-258 -610)"/>
</svg>
