<svg xmlns="http://www.w3.org/2000/svg" width="60" height="60" viewBox="0 0 60 60">
  <defs>
    <style>
      .cls-1 {
        fill: #a7a7a7;
        fill-rule: evenodd;
      }
    </style>
  </defs>
  <path id="Linkedin_Logo" data-name="Linkedin Logo" class="cls-1" d="M415.5,255.787V279H402.376V256.5c0-5.441-1.595-8.315-6.251-8.315-8.228,0-6.874,10.5-6.874,8.315V279H376.237s0.062-37.45-.111-41.249h13.125l-0.151,6.5c-0.026.042-.06,0.089-0.085,0.131H389.1v-0.131c1.709-2.754,4.761-6.69,11.592-6.69C409.156,237.565,415.5,243.353,415.5,255.787ZM362.78,219c-4.4,0-7.279,3.022-7.279,6.994a6.808,6.808,0,0,0,7.109,7H362.7c4.486,0,7.277-3.112,7.277-7A6.824,6.824,0,0,0,362.78,219ZM355.5,279h15V237.752h-15V279Z" transform="translate(-355.5 -219)"/>
</svg>
