<svg xmlns="http://www.w3.org/2000/svg" width="28" height="20" viewBox="0 0 28 20">
  <defs>
    <style>
      .cls-1 {
        fill: #16d598;
        fill-rule: evenodd;
      }
    </style>
  </defs>
  <path id="Close_Envelope" data-name="Close Envelope" class="cls-1" d="M695.536,2749.97l-9.9,8.49a2.044,2.044,0,0,0,1.382.54h23.972a2.034,2.034,0,0,0,1.377-.54l-9.9-8.49L699,2753Zm15.45-10.97H687.014a2,2,0,0,0-1.378.55L699,2751l13.367-11.46A2.038,2.038,0,0,0,710.986,2739ZM685,2757.37l9.666-8.21-9.666-8.4v16.61Zm28,0v-16.62l-9.666,8.41Z" transform="translate(-685 -2739)"/>
</svg>
