<svg xmlns="http://www.w3.org/2000/svg" width="40" height="32.531" viewBox="0 0 40 32.531">
  <defs>
    <style>
      .cls-1 {
        fill: #bbb;
        fill-rule: evenodd;
      }
    </style>
  </defs>
  <path id="Return_Refresh" data-name="Return Refresh" class="cls-1" d="M910.918,472.068H880.111l3.39-3.233a1.924,1.924,0,0,0,0-2.812,2.153,2.153,0,0,0-2.946,0l-6.947,6.628a1.927,1.927,0,0,0,0,2.813l6.947,6.629a2.159,2.159,0,0,0,2.947,0,1.925,1.925,0,0,0,0-2.813L880,476h29v18H878c-2.431,0-2.431,4,0,4h33a1.975,1.975,0,0,0,2-2l0-21.943a2.038,2.038,0,0,0-2.084-1.989h0Z" transform="translate(-873 -465.469)"/>
</svg>
