<svg xmlns="http://www.w3.org/2000/svg" width="24" height="20" viewBox="0 0 24 20">
  <defs>
    <style>
      .cls-1 {
        fill: #16d598;
        fill-rule: evenodd;
      }
    </style>
  </defs>
  <path id="Social_Twitter_Bird_Symbol_copy" data-name="Social Twitter Bird Symbol copy" class="cls-1" d="M2069.34,1679.37a9.79,9.79,0,0,1-3.13,1.23,4.839,4.839,0,0,0-3.59-1.6,4.992,4.992,0,0,0-4.93,5.05,5.477,5.477,0,0,0,.13,1.15,13.861,13.861,0,0,1-10.15-5.28,5.193,5.193,0,0,0-.66,2.54,5.061,5.061,0,0,0,2.19,4.2,4.694,4.694,0,0,1-2.23-.63v0.06a5.028,5.028,0,0,0,3.94,4.96,4.958,4.958,0,0,1-1.29.17,4.731,4.731,0,0,1-.93-0.09,4.952,4.952,0,0,0,4.6,3.51,9.759,9.759,0,0,1-6.11,2.16,9.232,9.232,0,0,1-1.18-.07,13.72,13.72,0,0,0,7.55,2.27c9.05,0,14.01-7.7,14.01-14.37l-0.02-.65a10.021,10.021,0,0,0,2.46-2.61,9.586,9.586,0,0,1-2.83.79A5.02,5.02,0,0,0,2069.34,1679.37Z" transform="translate(-2046 -1679)"/>
</svg>
