<svg xmlns="http://www.w3.org/2000/svg" width="24" height="20" viewBox="0 0 24 20">
  <defs>
    <style>
      .cls-1 {
        fill: #c8c8c8;
        fill-rule: evenodd;
      }
    </style>
  </defs>
  <path id="Social_Twitter_Bird_Symbol_copy" data-name="Social Twitter Bird Symbol copy" class="cls-1" d="M768.338,1679.37a9.78,9.78,0,0,1-3.128,1.23,4.833,4.833,0,0,0-3.593-1.6,4.987,4.987,0,0,0-4.924,5.05,5.284,5.284,0,0,0,.127,1.15,13.853,13.853,0,0,1-10.148-5.28,5.155,5.155,0,0,0-.666,2.54,5.061,5.061,0,0,0,2.19,4.2,4.72,4.72,0,0,1-2.23-.63v0.06a5.035,5.035,0,0,0,3.949,4.96,5.023,5.023,0,0,1-1.3.17,4.731,4.731,0,0,1-.927-0.09,4.942,4.942,0,0,0,4.6,3.51,9.745,9.745,0,0,1-6.114,2.16,9.121,9.121,0,0,1-1.175-.07,13.709,13.709,0,0,0,7.548,2.27c9.056,0,14.008-7.7,14.008-14.37l-0.016-.65a10.109,10.109,0,0,0,2.461-2.61,9.635,9.635,0,0,1-2.827.79A5.023,5.023,0,0,0,768.338,1679.37Z" transform="translate(-745 -1679)"/>
</svg>
