<svg xmlns="http://www.w3.org/2000/svg" width="36" height="30" viewBox="0 0 36 30">
  <defs>
    <style>
      .cls-1 {
        fill: #a7a7a7;
        fill-rule: evenodd;
      }
    </style>
  </defs>
  <path id="Social_Twitter_Bird_Symbol" data-name="Social Twitter Bird Symbol" class="cls-1" d="M472.008,610.555a14.672,14.672,0,0,1-4.693,1.839,7.278,7.278,0,0,0-5.39-2.393,7.483,7.483,0,0,0-7.386,7.574,7.835,7.835,0,0,0,.191,1.725,20.8,20.8,0,0,1-15.222-7.915,7.717,7.717,0,0,0,2.286,10.112,7.249,7.249,0,0,1-3.345-.95v0.094a7.539,7.539,0,0,0,5.923,7.429,7.211,7.211,0,0,1-3.336.128,7.425,7.425,0,0,0,6.9,5.263,14.591,14.591,0,0,1-9.172,3.24,15.075,15.075,0,0,1-1.762-.1,20.541,20.541,0,0,0,11.322,3.4c13.584,0,21.012-11.544,21.012-21.554l-0.024-.981A15.11,15.11,0,0,0,473,613.55a14.52,14.52,0,0,1-4.241,1.193A7.584,7.584,0,0,0,472.008,610.555Z" transform="translate(-437 -610)"/>
</svg>
