<svg xmlns="http://www.w3.org/2000/svg" width="72" height="60" viewBox="0 0 72 60">
  <defs>
    <style>
      .cls-1 {
        fill: #a7a7a7;
        fill-rule: evenodd;
      }
    </style>
  </defs>
  <path id="Social_Twitter_Bird_Symbol" data-name="Social Twitter Bird Symbol" class="cls-1" d="M783.515,220.109a29.261,29.261,0,0,1-9.385,3.678A14.557,14.557,0,0,0,763.35,219a14.966,14.966,0,0,0-14.772,15.149,15.669,15.669,0,0,0,.382,3.45,41.588,41.588,0,0,1-30.443-15.83,15.428,15.428,0,0,0,4.571,20.224,14.483,14.483,0,0,1-6.689-1.9v0.189a15.076,15.076,0,0,0,11.846,14.857,14.386,14.386,0,0,1-6.672.256,14.846,14.846,0,0,0,13.794,10.525,29.179,29.179,0,0,1-18.342,6.482,30.331,30.331,0,0,1-3.524-.208A41.076,41.076,0,0,0,736.143,279c27.169,0,42.025-23.087,42.025-43.107l-0.049-1.963a30.166,30.166,0,0,0,7.383-7.83,29.064,29.064,0,0,1-8.481,2.386A15.165,15.165,0,0,0,783.515,220.109Z" transform="translate(-713.5 -219)"/>
</svg>
